# xmcd
#
# Track frame offsets: 
#        150
#        14761
#        29230
#        44711
#        67186
#        98523
#        114711
#        132166
#        163856
#
# Disc length: 2557 seconds
#
# Revision: 0
# Processed by: cddbd v1.5.2PL0 Copyright (c) Steve Scherf et al.
# Submitted via: ExactAudioCopyFreeDBPlugin 1.0
#
DISCID=8809fb09
DTITLE=Nine Below Zero - Live In Gifhorn [CD 1)
DYEAR=2016
DGENRE=Blues
TTITLE0=Mechanic Man
TTITLE1=I'm So Alone
TTITLE2=Rockin' Robin
TTITLE3=Hard Going Up (Twice As Hard Going Down)
TTITLE4=I Can't Quit You Baby
TTITLE5=Don't Point Your Finger At The Guitarman
TTITLE6=Johnny Weekend
TTITLE7=Down In The Dirt
TTITLE8=On The Road Again
EXTD=
EXTT0=
EXTT1=
EXTT2=
EXTT3=
EXTT4=
EXTT5=
EXTT6=
EXTT7=
EXTT8=
PLAYORDER=
